<svg height="125" viewBox="0 0 200 125" width="200" xmlns="http://www.w3.org/2000/svg" xmlns:xlink="http://www.w3.org/1999/xlink"><defs><path id="premium-star" d="M -2.02 1.1 L -5.49 0.62 C -5.81 0.58 -6 0.4 -5.99 -0.04 C -5.96 -0.31 -5.75 -0.51 -5.49 -0.55 L -2.02 -1.02 C -1.53 -1.09 -1.15 -1.47 -1.08 -1.96 L -0.61 -5.43 C -0.56 -5.75 -0.27 -5.98 0.06 -5.93 C 0.32 -5.9 0.53 -5.69 0.56 -5.43 L 1.04 -1.96 C 1.11 -1.47 1.49 -1.09 1.97 -1.02 L 5.44 -0.55 C 5.77 -0.51 5.99 -0.21 5.95 0.12 C 5.91 0.38 5.71 0.59 5.44 0.62 L 1.97 1.1 C 1.49 1.16 1.11 1.55 1.04 2.03 L 0.56 5.5 C 0.52 5.82 0.22 6.05 -0.1 6.01 C -0.37 5.97 -0.57 5.76 -0.61 5.5 L -1.08 2.03 C -1.15 1.55 -1.53 1.16 -2.02 1.1 Z"/></defs><style>svg&gt;g{transform:scale(var(--s,1)) translate(var(--x),var(--y));transform-origin:var(--x) var(--y);opacity:var(--o,1);fill:#219cfb;--k:calc(-1 * var(--i));--bdur:var(--d,3s);--bdel:calc(.2s * var(--k));--mdur:calc(10 * var(--bdur));--mdel:calc(var(--bdel) + calc(var(--bdur) * var(--k)))}g&gt;g{animation:var(--mdur) steps(1) var(--mdel) infinite move}g&gt;g&gt;use{animation:var(--bdur) ease var(--bdel) infinite blink}@keyframes blink{0%,to{opacity:0;transform:scale(.1)}45%,55%{opacity:1;transform:scale(1)}}@keyframes move{0%,to{transform:translate(0,0)}10%{transform:translate(-4.7px,3.7px)}20%{transform:translate(-3.7px,-4.7px)}30%{transform:translate(-3px,0px)}40%{transform:translate(3.5px,.2px)}50%{transform:translate(-1.3px,-.5px)}60%{transform:translate(0px,-.7px)}70%{transform:translate(-4.8px,3px)}80%{transform:translate(2.4px,.7px)}90%{transform:translate(-2.1px,3.3px)}}</style><g style="--x:52.8px;--y:85.1px;--i:0;--d:4.2s"><g><use xlink:href="#premium-star"/></g></g><g style="--x:65.3px;--y:26.3px;--i:1;--d:4.9s"><g><use xlink:href="#premium-star"/></g></g><g style="--x:150.6px;--y:81.7px;--s:0.8;--i:2;--d:4.0s"><g><use xlink:href="#premium-star"/></g></g><g style="--x:114.6px;--y:15.8px;--s:0.8;--i:3;--d:3.1s"><g><use xlink:href="#premium-star"/></g></g><g style="--x:144.3px;--y:29.7px;--o:0.4;--i:4;--d:4.6s"><g><use xlink:href="#premium-star"/></g></g><g style="--x:171.3px;--y:56.3px;--o:0.4;--i:5;--d:3.7s"><g><use xlink:href="#premium-star"/></g></g><g style="--x:42.3px;--y:46.3px;--s:0.8;--o:0.35;--i:6;--d:3.8s"><g><use xlink:href="#premium-star"/></g></g><g style="--x:128.5px;--y:108px;--s:0.724;--o:0.35;--i:7;--d:4.2s"><g><use xlink:href="#premium-star"/></g></g><g style="--x:24px;--y:67.5px;--s:0.5;--o:0.33;--i:8;--d:3.8s"><g><use xlink:href="#premium-star"/></g></g><g style="--x:99px;--y:107.4px;--s:0.5;--o:0.33;--i:9;--d:3.7s"><g><use xlink:href="#premium-star"/></g></g><g id="Adv" stroke="none" stroke-width="1" fill="none" fill-rule="evenodd"><path d="M103 28.74C123.98 28.74 141 44.22 141 63.3 141 82.39 123.98 97.87 103 97.87 97.11 97.87 91.53 96.65 86.56 94.47 85.28 95.45 84.12 96.2 83.08 96.74 79.56 98.53 77.2 99.17 71.84 99.73 70.39 99.88 69.42 98.59 70.55 97.47 72.97 95.07 74.31 90.83 75.02 86.69 68.8 80.54 65 72.32 65 63.3 65 44.22 82.01 28.74 103 28.74Z" id="Combined-Shape" fill="#219CFB"/><path d="M101.53 71.65C102.15 72.1 102.48 72.44 102.53 72.65 103.08 75.3 103.5 77.31 103.8 78.69 104.05 81.13 103.35 83.35 101.35 83.66 101.28 83.67 101.21 83.67 101.14 83.68L100.75 83.71C98.68 83.88 96.74 82.44 95.9 80.11 93.74 76.71 92.35 74.16 91.74 72.45 91.68 72.28 91.89 72.01 92.37 71.65L101.53 71.65ZM88.96 53.38 99.44 53.38C101.18 53.38 102.59 54.79 102.59 56.53L102.59 66.21C102.59 67.95 101.18 69.36 99.44 69.36L88.96 69.36C85.48 69.36 82.66 66.54 82.66 63.06L82.66 59.68C82.66 56.2 85.48 53.38 88.96 53.38ZM106.45 52.38 114.59 46.95C116.23 45.86 118.44 46.31 119.53 47.94 119.92 48.53 120.12 49.21 120.12 49.91L120.12 71.88C120.12 73.84 118.53 75.43 116.57 75.43 115.93 75.43 115.31 75.27 114.77 74.95L106.59 70.16C105.71 69.65 105.18 68.72 105.18 67.71L105.18 54.75C105.18 53.8 105.65 52.91 106.45 52.38Z" id="Combined-Shape" fill="#FFF"/></g></svg>