<svg height="18" viewBox="0 0 17 18" width="17" xmlns="http://www.w3.org/2000/svg"><path d="m.32 8.22c4.81-2.07 8.02-3.43 9.62-4.08 3.48-1.43 4.87-1.96 5.61-2.13.23-.06 1.45.29 1.45 1.18 0 2.58-1.32 8.8-1.87 11.67-.23 1.22-1.88 1.6-3.74.45-1.47-.91-2.27-1.52-3.68-2.44-1.63-1.05-.58-1.63.35-2.58.25-.25 4.47-4.03 4.55-4.37.01-.04.02-.2-.08-.29-.09-.08-.24-.05-.34-.03-.14.03-2.46 1.54-6.96 4.53-.66.44-1.25.66-1.79.65-.59-.02-1.15-.05-2.56-.6-.94-.37-1.13-1.02-.56-1.96z" fill="#fff" fill-rule="evenodd"/></svg>