<svg height="36" viewBox="0 0 26 36" width="26" xmlns="http://www.w3.org/2000/svg"><path d="m8.88 13.45 2.89-5.71c.33-.66 1.14-.93 1.8-.6.25.13.46.35.59.61l2.73 5.51c.22.45.66.76 1.16.82l5.7.68c.78.09 1.33.79 1.24 1.57-.04.31-.18.61-.41.84l-4.52 4.42c-.18.18-.27.43-.23.68l.75 5.98c.1.85-.5 1.63-1.36 1.74-.32.04-.65-.02-.94-.18l-4.77-2.59c-.34-.19-.76-.19-1.11-.01l-4.93 2.52c-.7.35-1.55.07-1.91-.62-.13-.26-.18-.55-.14-.84l.4-2.74c.19-1.34 1.03-2.51 2.23-3.12l5.49-2.78c.15-.08.2-.26.13-.4-.06-.12-.18-.18-.31-.16l-6.71.95c-1.02.15-2.06-.14-2.87-.79l-2.23-1.82c-.64-.51-.73-1.45-.22-2.09.24-.29.59-.48.97-.53l5.73-.74c.36-.04.68-.27.85-.6z" fill="#248bda" fill-rule="evenodd"/></svg>