<svg height="72" viewBox="0 0 72 72" width="72" xmlns="http://www.w3.org/2000/svg"><g fill="none" fill-rule="evenodd" stroke="#fff" stroke-width="3.6"><path d="m17.16 15.2c1.76 0 3.38.65 4.6 1.74 1.23 1.09 2.07 2.62 2.28 4.37l.75 6.43c.23 2.02-.43 4.01-1.8 5.48l-1.59 2.81c3.46 6.26 9.51 11.59 15.82 14.99l2.97-1.98c1.48-1.36 3.94-1.89 5.97-1.65l6.05 1.01c1.9.4 3.31 1.39 4.26 2.95.83 1.34 1.3 3.17 1.33 5.52 0 1.97-.82 3.77-2.14 5.03-1.31 1.27-3.11 2.01-5.07 1.89-11.37-.71-21.61-5.59-29.17-13.14-7.57-7.55-12.47-17.75-13.18-29.1-.13-2.1.11-3.6.8-4.59.7-1.02 1.85-1.76 4.07-1.76z" fill-rule="nonzero"/><rect height="14" rx="3.33" width="20" x="40" y="19"/><path d="m44.2 18.86v-5.06c0-3.2 2.6-5.8 5.8-5.8s5.8 2.6 5.8 5.8v5.06"/></g></svg>