<svg height="72" viewBox="0 0 72 72" width="72" xmlns="http://www.w3.org/2000/svg"><path d="m34.81 6.51c.76-.27 1.6-.27 2.36.01l22.1 8.02c.66.23 1.21.66 1.61 1.19.4.54.64 1.19.68 1.89.76 13.39-.33 23.34-3.12 29.89-2.78 6.48-9.36 12.53-19.96 17.98-.47.24-4.81.28-5.5-.02-10.9-4.77-17.74-10.82-20.72-17.98-3.05-7.32-3.84-17.33-2.26-30.07.09-.66.35-1.26.74-1.75.4-.49.93-.88 1.55-1.1zm-10.5 31.37 8.19 7.39c.15.14.38.13.51-.02l16.73-17.63" fill="none" stroke="#fff" stroke-linecap="round" stroke-width="3.6"/></svg>