<svg height="125" viewBox="0 0 200 125" width="200" xmlns="http://www.w3.org/2000/svg" xmlns:xlink="http://www.w3.org/1999/xlink"><defs><path id="premium-star" d="M-.02 7C.35 7 .94 6.73.94 6.23L.94 5.5C3.24 5.24 4.46 3.93 4.46 2.07 4.46.45 3.44-.53 1.37-.92L-.18-1.22C-1.22-1.42-1.7-1.8-1.7-2.39-1.7-3.05-1.08-3.58-.12-3.58.71-3.58 1.3-3.32 2-2.69 2.41-2.35 2.75-2.2 3.19-2.2 3.71-2.2 4.13-2.56 4.13-3.08 4.13-3.52 3.89-3.98 3.43-4.4 2.82-4.97 2.03-5.33.94-5.46L.94-6.16C.94-6.66.37-7-0-7-.37-7-.91-6.67-.91-6.16L-.91-5.48C-3.13-5.28-4.4-4.01-4.4-2.19-4.4-.58-3.39.44-1.41.83L.14 1.15C1.32 1.4 1.79 1.75 1.79 2.34 1.79 3.09 1.17 3.59.01 3.59-.82 3.59-1.63 3.26-2.36 2.62-2.83 2.24-3.12 2.13-3.48 2.13-4.07 2.13-4.54 2.48-4.54 3.09-4.54 3.56-4.27 4.02-3.81 4.42-3.13 5.03-2.16 5.4-.91 5.5L-.91 6.21C-.91 6.72-.39 7-.02 7Z"/></defs><style>svg&gt;g{transform:scale(var(--s,1)) translate(var(--x),var(--y));transform-origin:var(--x) var(--y);opacity:var(--o,1);fill:#219cfb;--k:calc(-1 * var(--i));--bdur:var(--d,3s);--bdel:calc(.2s * var(--k));--mdur:calc(10 * var(--bdur));--mdel:calc(var(--bdel) + calc(var(--bdur) * var(--k)))}g&gt;g{animation:var(--mdur) steps(1) var(--mdel) infinite move}g&gt;g&gt;use{animation:var(--bdur) ease var(--bdel) infinite blink}@keyframes blink{0%,to{opacity:0;transform:scale(.1)}45%,55%{opacity:1;transform:scale(1)}}@keyframes move{0%,to{transform:translate(0,0)}10%{transform:translate(-4.7px,3.7px)}20%{transform:translate(-3.7px,-4.7px)}30%{transform:translate(-3px,0px)}40%{transform:translate(3.5px,.2px)}50%{transform:translate(-1.3px,-.5px)}60%{transform:translate(0px,-.7px)}70%{transform:translate(-4.8px,3px)}80%{transform:translate(2.4px,.7px)}90%{transform:translate(-2.1px,3.3px)}}</style><g style="--x:55.5px;--y:89px;--i:0;--d:2.4s"><g><use xlink:href="#premium-star"/></g></g><g style="--x:70px;--y:13px;--s:0.88;--i:1;--d:4.7s"><g><use xlink:href="#premium-star"/></g></g><g style="--x:148.5px;--y:89px;--i:2;--d:3.1s"><g><use xlink:href="#premium-star"/></g></g><g style="--x:138.5px;--y:17.5px;--s:1.22;--o:0.57;--i:3;--d:5.0s"><g><use xlink:href="#premium-star"/></g></g><g style="--x:151.5px;--y:50px;--i:4;--d:2.8s"><g><use xlink:href="#premium-star"/></g></g><g style="--x:178px;--y:67px;--s:0.88;--o:0.42;--i:5;--d:3.6s"><g><use xlink:href="#premium-star"/></g></g><g style="--x:44.5px;--y:43.5px;--s:1.22;--o:0.66;--i:6;--d:4.1s"><g><use xlink:href="#premium-star"/></g></g><g style="--x:111.5px;--y:108px;--o:0.49;--i:7;--d:2.5s"><g><use xlink:href="#premium-star"/></g></g><g style="--x:22.5px;--y:77px;--o:0.42;--i:8;--d:4.3s"><g><use xlink:href="#premium-star"/></g></g><g stroke="none" stroke-width="1" fill="none" fill-rule="evenodd"><ellipse fill="#149EFA" cx="99.67" cy="58.64" rx="37.67" ry="37.64"/><path d="M100.04 81C101.19 81 103.03 80.14 103.03 78.52L103.03 76.18C110.19 75.34 114 71.14 114 65.15 114 59.96 110.83 56.8 104.39 55.56L99.55 54.57C96.31 53.94 94.82 52.73 94.82 50.83 94.82 48.7 96.74 47.01 99.76 47.01 102.31 47.01 104.16 47.82 106.33 49.87 107.61 50.95 108.66 51.44 110.04 51.44 111.65 51.44 112.98 50.27 112.98 48.6 112.98 47.19 112.21 45.69 110.78 44.35 108.89 42.53 106.43 41.37 103.03 40.94L103.03 38.71C103.03 37.09 101.27 36 100.12 36 98.96 36 97.28 37.07 97.28 38.71L97.28 40.89C90.38 41.52 86.43 45.62 86.43 51.46 86.43 56.62 89.55 59.91 95.74 61.17L100.55 62.21C104.23 63 105.69 64.11 105.69 66.01 105.69 68.44 103.75 70.03 100.14 70.03 97.56 70.03 95.05 68.97 92.78 66.92 91.32 65.7 90.4 65.35 89.27 65.35 87.46 65.35 86 66.46 86 68.44 86 69.95 86.82 71.42 88.25 72.71 90.37 74.66 93.39 75.85 97.28 76.18L97.28 78.47C97.28 80.09 98.89 81 100.04 81Z" id="Path" fill="#FFF"/></g></svg>