<svg height="72" viewBox="0 0 72 72" width="72" xmlns="http://www.w3.org/2000/svg"><g fill="none" fill-rule="evenodd"><path d="m10 60h52c1.1 0 2-.9 2-2v-35c0-6.08-4.92-11-11-11h-34c-6.08 0-11 4.92-11 11v35c0 1.1.9 2 2 2zm-1-26.5h18.5zm36 0h18.5zm-16-5.7c-.33 0-.63.13-.85.35s-.35.52-.35.85v12c0 .88.36 1.68.94 2.26s1.38.94 2.26.94h10c.88 0 1.68-.36 2.26-.94s.94-1.38.94-2.26v-12c0-.33-.13-.63-.35-.85s-.52-.35-.85-.35z" stroke="#fff" stroke-width="3.6"/><rect fill="#fff" height="5" rx="1.5" width="4" x="34" y="33.5"/></g></svg>