<svg height="19" viewBox="0 0 18 19" width="18" xmlns="http://www.w3.org/2000/svg"><path d="m12.5 11c.39 0 .74-.15 1.04-.46.31-.3.46-.66.46-1.06 0-.39-.15-.74-.46-1.03-.3-.3-.65-.45-1.04-.45s-.74.15-1.04.45c-.31.29-.46.64-.46 1.03 0 .4.15.76.46 1.06.3.31.65.46 1.04.46zm-2.45 2.5c-.47 0-.85-.24-1.13-.52s-.42-.65-.42-1.1v-4.73c0-.48.14-.85.42-1.12s.66-.53 1.13-.53h5.39c.48 0 .86.26 1.14.53s.42.64.42 1.12v4.73c0 .45-.14.82-.42 1.1s-.66.52-1.14.52zm-9.05 1v-10c0-1.38 1.12-2.5 2.5-2.5h11.38c.33 0 .63.13.88.39.25.25.38.54.38.86v.75h-6.35c-.81 0-1.49.64-2.02 1.17-.53.52-.77 1.18-.77 1.98v4.73c0 .79.24 1.45.77 1.97.53.53 1.21 1.15 2.02 1.15h6.35v.75c0 .33-.13.63-.38.88s-.55.37-.88.37h-11.38c-1.38 0-2.5-1.12-2.5-2.5z" fill="#4cb0fd"/></svg>