<svg height="18" viewBox="0 0 18 18" width="18" xmlns="http://www.w3.org/2000/svg"><g fill="none" fill-rule="evenodd"><g stroke="#fff" stroke-width="1.4"><path d="m1.56 15.33h14.44c.31 0 .56-.25.56-.55v-9.72c0-1.69-1.37-3.06-3.06-3.06h-9.44c-1.69 0-3.06 1.37-3.06 3.06v9.72c0 .3.25.55.56.55z"/><path d="m1.277778 7.972222h5.138889"/><path d="m11.277778 7.972222h5.138889"/><path d="m10.72 6.59.14 3.47c0 .19-.08.36-.21.48-.12.13-.29.2-.48.2h-2.78c-.19 0-.36-.07-.49-.2-.12-.12-.2-.29-.2-.48v-3.34z" transform="matrix(-1 0 0 1 17.56 0)"/></g><rect fill="#fff" height="1.39" rx=".42" width="1.11" x="8.22" y="7.97"/></g></svg>