<svg height="17" viewBox="0 0 17 17" width="17" xmlns="http://www.w3.org/2000/svg"><g fill="#8c9aa9" fill-rule="evenodd" transform="translate(.708333 2.125)"><path d="m7.79 0c2.74 0 4.96 2.22 4.96 4.96v4.84c0 1.37-1.11 2.48-2.47 2.48h-4.97c-1.37 0-2.48-1.11-2.48-2.48v-4.84c0-2.74 2.22-4.96 4.96-4.96zm0 1.18c-2.08 0-3.78 1.69-3.78 3.78v.47c0 .78.64 1.42 1.42 1.42h4.72c.79 0 1.42-.64 1.42-1.42v-.47c0-2.09-1.69-3.78-3.78-3.78z"/><rect height="5.19" rx=".94" width="1.89" x="13.69" y="5.19"/><rect height="5.19" rx=".94" width="1.89" y="5.19"/><ellipse cx="9.44" cy="4.49" rx="1" ry="1"/><ellipse cx="6.14" cy="4.49" rx="1" ry="1"/></g></svg>